<svg width="755" height="238" viewBox="0 0 755 238" fill="none" xmlns="http://www.w3.org/2000/svg">
<path d="M81.2503 200.636C101.357 178.351 98.5085 148.359 73.5428 131.101L93.9845 110.156C74.7157 90.217 37.3508 88.2064 19.4223 109.318C0.488553 131.938 3.00189 158.915 27.465 178.519L7.861 199.128C28.8054 222.586 64.1597 219.737 81.2503 200.636ZM733.985 200.636C754.091 178.351 751.243 148.359 726.277 131.101L746.719 110.156C727.45 90.217 690.085 88.2064 672.157 109.318C653.223 131.938 655.736 158.915 680.199 178.519L660.595 199.128C681.54 222.586 716.894 219.737 733.985 200.636Z" fill="#4187ED"/>
<path d="M107.814 213.37H221.417L164.616 94.4059L107.814 213.37Z" fill="#51B581"/>
<path d="M285.057 96.0815H234.79V213.37H285.057V196.615C312.703 196.615 335.323 174.162 335.323 146.181C335.323 118.701 312.703 96.0815 285.057 96.0815Z" fill="#F9A03F"/>
<path d="M348.676 213.37H398.942V96.0815H348.676V213.37Z" fill="#F72586"/>
<path d="M472.958 215.494C495.049 215.494 516.502 203.175 527.122 181.721L474.02 155.17H532.645C532.645 121.397 505.882 94.4216 472.958 94.4216C439.185 94.4216 412.209 121.397 412.209 155.17C412.209 188.306 439.185 215.494 472.958 215.494Z" fill="#9B51E0"/>
<path d="M545.705 213.37H604.349V193.096L646.238 213.37V96.0815H587.593V116.188L545.705 96.0815V213.37Z" fill="#FFC43D"/>
</svg>
